<?xml version="1.0" encoding="UTF-8"?>
<!DOCTYPE svg PUBLIC "-//W3C//DTD SVG 1.1//EN" "http://www.w3.org/Graphics/SVG/1.1/DTD/svg11.dtd">
<!-- Creator: CorelDRAW -->
<svg xmlns="http://www.w3.org/2000/svg" xml:space="preserve" width="6.00092in" height="5.95485in" version="1.1" style="shape-rendering:geometricPrecision; text-rendering:geometricPrecision; image-rendering:optimizeQuality; fill-rule:evenodd; clip-rule:evenodd"
viewBox="0 0 6001 5955"
 xmlns:xlink="http://www.w3.org/1999/xlink">
 <defs>
  <style type="text/css">
   <![CDATA[
    .fil0 {fill:black}
    .fil2 {fill:#016433}
    .fil4 {fill:#39CB33}
    .fil3 {fill:#FA0201}
    .fil1 {fill:#FFD802}
    .fil5 {fill:white}
    .fil6 {fill:red;fill-rule:nonzero}
   ]]>
  </style>
 </defs>
 <g id="Layer_x0020_1">
  <metadata id="CorelCorpID_0Corel-Layer"/>
  <g id="Universitas_x0020_Mataram_x0020__x0028_KoleksiLogo.com_x0029_.cdr">
   <path class="fil0" d="M4532 1042c42,-17 87,-28 147,-28 269,-2 485,260 642,450 154,188 411,566 626,669l54 26 -15 58c-7,29 -22,56 -34,83 -17,40 -29,81 -39,125 -35,166 -36,352 -39,522 -3,161 -4,328 -30,487 -22,143 -66,292 -170,398 -56,58 -123,96 -196,119 40,46 68,97 84,156 64,240 -105,531 -235,720 -77,113 -154,225 -227,340 -39,62 -77,125 -112,190 -28,52 -56,107 -76,162 -18,49 -19,95 -46,143l-23 41 -47 -5c-194,-18 -308,4 -493,53 -153,41 -302,92 -455,134 -169,46 -367,89 -542,58 -109,-20 -202,-66 -272,-153 -10,-12 -19,-25 -28,-39 -6,11 -13,21 -20,31 -70,95 -169,144 -283,163 -238,41 -557,-60 -786,-125 -101,-30 -203,-59 -306,-82 -89,-21 -182,-38 -274,-41 -46,-1 -111,11 -154,-1l-48 -12 -7 -49c-36,-264 -295,-582 -444,-801 -128,-189 -296,-480 -237,-720 15,-60 42,-111 81,-158 -120,-31 -210,-98 -278,-226 -113,-215 -115,-551 -123,-791 -4,-108 -8,-216 -18,-324 -9,-93 -23,-189 -50,-278 -13,-40 -32,-76 -43,-117l-16 -65 63 -22c161,-56 365,-330 467,-465 140,-185 300,-411 491,-544 84,-58 180,-98 283,-103 60,-2 112,6 165,25 -5,-54 1,-104 24,-165 30,-84 93,-163 163,-218 199,-153 450,-236 685,-320 195,-71 405,-148 571,-275 9,-7 17,-16 26,-24 12,-10 24,-18 39,-23l50 -21 34 42c64,78 175,136 265,177 130,58 267,104 401,151 156,54 320,112 465,191 130,71 256,168 310,311 21,55 32,110 30,169 0,0 0,1 0,1z"/>
   <path class="fil1" d="M3398 3708c-26,65 -49,144 -72,212 -81,27 -18,-14 -111,134l-63 2c-6,54 -8,299 1,346l63 2c25,41 47,90 71,130l57 1 76 250 -811 -1c-2,-30 33,-113 45,-145 46,-132 23,-97 87,-108l68 -125 49 -5 -2 -343 -46 -6c-22,-29 -50,-89 -69,-124 -45,-10 -53,11 -68,-30l-65 -206c-13,43 -32,30 -29,111 3,97 50,242 62,367 17,172 -47,314 -227,334l-14 -99c-34,16 -61,48 -95,59l-8 -103c-36,15 -61,39 -99,52l0 -105 -104 46 7 -105 -107 39 14 -105 -109 31 20 -104 -112 23 31 -103 -115 14 38 -101 -116 5 44 -98 -115 -3 54 -95 -113 -11c4,-27 44,-64 58,-94l-116 -20c19,-30 52,-57 70,-89l-114 -30 74 -83 -108 -38c27,-32 54,-44 80,-76 -13,-11 -32,-17 -50,-25 -19,-8 -38,-12 -51,-27 27,-26 56,-39 83,-65l-21 -17c-8,-4 -17,-8 -25,-13 -18,-9 -33,-16 -50,-28 22,-27 70,-41 90,-65 -17,-15 -26,-20 -46,-31 -6,-4 -18,-10 -24,-14l-21 -20c19,-16 72,-41 96,-53 -25,-26 -43,-34 -70,-55l-20 -21 101 -45c-11,-21 -22,-24 -41,-40 -13,-11 -28,-26 -38,-38 28,-20 76,-26 106,-41l-75 -82c26,-18 75,-21 109,-33 -17,-29 -56,-63 -68,-92l112 -20c-12,-26 -58,-72 -58,-97l111 -11c-13,-30 -46,-72 -50,-100l113 -2 -46 -104 117 7 -38 -106 115 14 -28 -107 112 23 -20 -109 111 32 -12 -109 107 39 -3 -109 104 46 2 -108c34,14 71,46 102,53l10 -105c26,7 71,63 88,86 197,258 8,662 -53,981 -40,210 -28,408 55,583 71,147 207,292 316,369l-7 20c24,2 179,9 203,-5l-15 -13c-7,-4 -6,-3 -12,-7 -51,-32 -132,-96 -170,-135 -196,-198 -283,-454 -284,-758 -1,-210 34,-424 80,-619l146 -528c4,-8 5,-8 7,-11 21,21 34,43 50,66 12,18 33,49 47,62 24,-27 50,-120 65,-160 19,15 91,107 102,129l48 -141c2,-7 6,-19 9,-24 9,-12 1,-6 16,-12 25,20 54,150 80,188l84 -148 77 170 95 -139c20,24 79,237 87,265 129,471 235,995 8,1449 -69,138 -213,288 -332,359 11,22 -6,8 23,14 7,1 194,3 215,-7 -73,-10 -66,-8 8,-69 85,-69 190,-191 241,-290 95,-186 113,-360 75,-594 -46,-281 -208,-645 -117,-892 31,-83 91,-165 148,-200l10 106c36,0 67,-47 103,-45l3 104 104 -47 -4 109 108 -40 -12 110 111 -31 -21 109 113 -22 -29 106 115 -14 -37 105 116 -7 -46 104 116 3 -54 99 112 10c-2,22 -44,72 -57,95 27,16 82,10 110,26 -7,13 -57,77 -68,89l113 31 -78 87c22,5 88,24 105,39l-61 56c-5,4 -4,3 -10,9 -9,11 -2,-1 -7,12 31,21 71,30 101,47 -24,26 -60,43 -88,70l48 30c17,8 36,17 48,30l-92 63c4,4 5,5 11,10 24,18 65,36 80,53 -32,17 -67,40 -102,54 20,25 60,44 87,70 -16,15 -33,19 -53,28 -16,6 -36,13 -50,23 10,13 66,60 81,71 -6,6 -2,3 -11,9 -23,14 -72,20 -97,38l72 77c-23,14 -79,24 -111,34 12,19 50,66 68,82 -8,7 1,2 -13,7l-98 18c-1,22 49,68 56,95l-116 11 55 96 -119 2 46 100 -115 -6 38 101 -115 -15 32 104 -115 -24 23 105 -110 -31 15 106 -108 -40 7 105 -103 -45 -1 105 -99 -55 -7 106 -90 -60c-4,5 -2,-2 -6,13 -2,6 -1,4 -3,10l-10 74c-444,-68 -84,-666 -181,-788zm-394 -3627c-20,8 -31,24 -48,37 -362,278 -904,325 -1256,596 -59,45 -113,113 -139,184 -44,119 -8,186 3,269 -79,-41 -139,-85 -258,-80 -97,4 -181,46 -244,90 -177,124 -339,349 -475,528 -116,154 -320,427 -500,489 9,37 29,76 41,114 124,401 12,1050 186,1380 71,134 167,196 361,208 -41,80 -395,206 69,889 157,230 417,551 456,833 22,5 105,-3 139,-2 415,14 989,312 1351,249 253,-43 274,-224 312,-276 50,71 82,232 316,274 165,29 362,-16 510,-57 155,-42 301,-92 455,-133 191,-51 305,-76 519,-55 20,-36 25,-91 40,-131 74,-204 303,-533 424,-709 464,-676 108,-807 61,-882 644,-39 395,-942 514,-1494 28,-130 63,-170 73,-210 -230,-111 -483,-484 -651,-689 -134,-163 -344,-425 -584,-423 -109,1 -169,45 -239,86 2,-79 43,-143 -8,-276 -161,-425 -1150,-472 -1428,-809zm-1496 4436l152 -83 125 133 -296 276 -88 -94 111 -105 -138 76 -77 -82 85 -133 -112 104 -89 -95 296 -276 125 133 -94 146zm426 555l-88 -50 -46 43 -136 -77 332 -277 130 74 -67 427 -139 -78 14 -62zm608 3l-74 268 -145 -40 74 -267 -112 -31 34 -123 369 101 -34 123 -112 -31zm483 272l-102 -4 -21 60 -156 -7 168 -398 150 6 136 410 -159 -6 -16 -61zm650 -227c7,3 14,9 20,13 8,6 18,13 24,20l102 110 -163 45 -96 -100c-5,-4 -15,-15 -20,-17 -4,-1 -7,-2 -10,-2l39 143 -146 40 -107 -390 201 -55c26,-8 58,-15 85,-14 24,1 45,10 64,25 19,16 31,38 38,62 6,21 7,43 1,64 -5,20 -15,38 -29,53 -1,1 -2,2 -3,3zm516 -120l-88 51 15 62 -134 79 -75 -426 129 -76 337 271 -137 81 -47 -42zm327 -511l-98 -143 119 -137 305 266 -85 98 -115 -101 89 131 -74 85 -141 -71 116 100 -86 98 -305 -266 120 -138 155 78zm-3610 -2312l67 -155 243 106c23,10 45,24 64,42 18,18 32,39 41,64 9,22 13,46 12,70 -3,33 -13,66 -26,96 -10,21 -21,42 -32,63 -12,20 -26,39 -45,54 -16,14 -36,24 -56,31 -21,6 -42,10 -63,7 -25,-2 -51,-8 -74,-18l-243 -106 68 -154 248 108c13,6 28,9 42,3 14,-6 23,-18 29,-32 6,-13 9,-28 3,-42 -5,-14 -17,-23 -31,-29l-247 -108zm491 -424l-148 -117 100 -127 353 279 -94 120 -229 -13 147 116 -99 127 -354 -279 94 -119 230 13zm97 -364l133 -105 278 354 -133 105 -278 -354zm574 -77l-42 -266 156 -78 47 480 -151 76 -358 -324 159 -80 189 192zm431 -297l7 28 200 -46 27 118 -200 46 10 44 222 -51 29 127 -386 89 -102 -439 381 -87 28 121 -216 50zm712 76c7,6 14,15 20,22 7,9 15,20 20,30l74 148 -191 -6 -71 -137c-4,-7 -12,-22 -18,-26 -4,-4 -10,-6 -15,-7l-5 167 -170 -5 15 -450 238 7c31,1 69,4 99,14 25,9 45,25 60,47 16,23 22,50 21,78 -1,25 -7,48 -20,69 -13,19 -30,34 -50,45 -2,1 -5,2 -7,4zm301 75c-28,-18 -55,-40 -72,-65 -21,-32 -27,-66 -16,-103 7,-24 21,-45 40,-61 23,-18 49,-28 78,-31 36,-4 77,4 112,14 44,13 92,34 121,70 28,34 34,76 27,118l-3 20 -107 -25c12,8 23,17 34,26 20,19 37,41 45,68 6,24 6,49 -1,73 -9,30 -25,54 -48,74 -25,20 -54,31 -85,35 -37,4 -76,-2 -111,-13 -51,-15 -117,-40 -145,-89 -22,-39 -27,-81 -19,-125l4 -19 146 33zm11 7l-2 13c-2,11 -2,26 2,38 7,16 21,25 38,29 10,3 23,5 32,1 6,-3 11,-6 13,-13 2,-6 0,-11 -3,-16 -8,-11 -40,-29 -52,-36 -9,-5 -18,-10 -28,-16zm122 -99c1,-10 0,-22 -6,-31 -6,-9 -18,-14 -29,-17 -6,-2 -17,-4 -23,-1 -4,1 -6,3 -7,7 -1,1 1,3 1,4l1 0 0 0c4,6 25,18 31,21 11,5 21,11 32,17zm339 -22l151 78 -207 400 -150 -78 206 -400zm425 439l-191 246 -134 -104 192 -245 -107 -83 85 -110 347 270 -86 109 -106 -83zm137 505l-77 -96 -67 26 -109 -137 461 -144 106 132 -242 418 -112 -140 40 -59zm287 263c-5,-33 -6,-68 2,-98 10,-36 32,-63 66,-79 24,-11 48,-13 73,-9 29,4 53,18 75,38 27,24 47,61 63,94 19,41 35,91 27,137 -8,43 -36,75 -72,98l-17 10 -52 -96c2,14 3,28 3,42 -1,27 -7,55 -22,78 -14,21 -33,37 -56,48 -27,13 -57,16 -87,11 -31,-5 -58,-19 -82,-40 -27,-25 -48,-59 -63,-92 -23,-49 -46,-115 -27,-168 14,-43 43,-74 81,-97l17 -9 71 132zm2 13l-11 6c-10,7 -22,16 -27,27 -8,16 -5,32 2,48 4,9 11,20 21,25 6,3 12,4 18,1 5,-2 8,-8 10,-13 4,-13 -4,-50 -7,-63 -2,-10 -4,-20 -6,-31zm154 27c9,-6 17,-15 20,-25 3,-11 -1,-23 -6,-33 -3,-6 -8,-16 -14,-19 -4,-1 -7,-2 -10,0 -1,0 -2,3 -2,4l-1 0 0 0c-1,7 4,30 5,37 3,12 6,24 8,36zm-3030 2654l11 -52 -38 37 27 15zm1033 276l-13 -52 -18 51 31 1zm509 -143l29 -8c7,-2 18,-8 24,-11l0 0 0 -1c3,-1 5,-3 6,-6 2,-4 2,-7 1,-11 -2,-5 -4,-9 -8,-12 -7,-3 -25,2 -31,4l-31 8 10 37zm598 -169l-39 -36 13 52 26 -16zm-1065 -3917l37 1c9,1 23,-2 31,-4l1 0 0 0c4,-1 8,-3 10,-6 4,-4 5,-8 5,-13 0,-6 -1,-12 -6,-16 -7,-7 -28,-8 -37,-8l-40 -1 -1 47zm1586 886l40 -60 -68 26 28 34z"/>
   <path class="fil2" d="M3393 3676c15,2 6,-5 9,8 13,9 4,-4 18,19 5,8 6,12 9,23 45,164 -131,438 -28,637 24,46 91,102 158,109 20,-30 2,-81 29,-109 11,15 68,54 83,58l6 -98 98 50 -2 -98c51,8 63,29 105,40l-9 -101 104 36 -13 -99 107 27 -22 -100 111 21 -31 -100 113 16c-5,-31 -27,-63 -36,-100l112 6 -44 -96 115 -3c-12,-22 -46,-74 -50,-95 19,-2 38,-3 58,-5l49 -10c-17,-36 -40,-50 -53,-84 29,-13 65,-10 94,-20l10 -4c1,0 3,-1 4,-2 -19,-31 -46,-48 -64,-84l110 -27 -75 -82 110 -38c-10,-8 -25,-21 -38,-32 -21,-16 -26,-22 -41,-41 15,-13 26,-16 47,-23 20,-8 33,-15 54,-25 -13,-11 -23,-21 -41,-33 -20,-13 -27,-15 -41,-36 25,-29 67,-28 95,-58 -20,-9 -26,-14 -44,-25 -9,-6 -13,-7 -21,-13l-23 -20c1,-2 2,-6 3,-5l40 -28c16,-9 36,-19 47,-34 -22,-8 -79,-36 -96,-50 23,-30 63,-44 84,-71 -25,-16 -69,-30 -98,-46 20,-27 67,-55 77,-77l-99 -37c22,-40 55,-50 72,-87 -29,-9 -81,-13 -104,-31 17,-34 47,-52 60,-84 -26,-13 -52,-8 -80,-15l-24 -11c17,-32 41,-56 57,-90l-107 -10c1,-30 36,-70 48,-99l-115 -2 47 -101 -113 6 36 -103 -113 15 28 -105 -109 22 18 -105 -107 30 11 -106 -104 37 4 -106 -102 46 -17 -100c-27,4 -56,35 -86,44l-10 -96c-70,25 -130,190 -138,266 -7,63 -3,132 6,193 5,35 40,147 31,165 17,-88 -3,-139 42,-212 24,-39 91,-99 159,-103 -10,21 -1,6 -15,20 -6,6 -15,14 -20,19 -90,83 -124,299 -47,388 67,78 230,-67 341,-31 28,10 83,41 78,59 -1,0 -3,0 -4,1 0,1 -3,1 -3,1 -88,8 -106,-12 -223,41 -75,33 -127,82 -119,170 9,97 105,99 194,73 76,-21 167,-103 182,-99 3,20 -45,70 -60,86 -118,126 -290,116 -292,194 -1,86 216,116 265,214 14,30 36,92 24,132 -18,-4 -34,-32 -50,-48 -23,-23 -34,-37 -57,-53 -35,-25 -104,-66 -162,-46 -16,29 -11,82 -20,117 -10,36 -30,61 -37,98 110,65 199,143 228,280 -30,-5 -95,-67 -125,-87 -34,-23 -92,-72 -140,-68 -19,48 -3,140 -3,198 0,65 -5,135 -19,195 -14,54 -36,111 -69,145 -17,18 -83,90 -119,83 -5,-10 -4,2 -3,-13l70 -219c10,-43 25,-233 -30,-262 -28,-13 -81,23 -107,34 -35,15 -79,30 -110,44 15,7 22,5 38,10 12,4 10,3 19,9 15,11 7,5 15,16z"/>
   <path class="fil2" d="M2608 3681l4 -5 32 -19c10,-3 17,-4 27,-8 -35,-12 -77,-29 -111,-45 -29,-14 -71,-39 -105,-37 -48,53 -47,181 -30,263 18,89 74,213 71,236 -44,-5 -105,-60 -126,-85 -26,-30 -52,-90 -64,-142 -76,-318 117,-542 -227,-279 -23,17 -57,60 -57,24l10 -32c55,-129 95,-146 213,-235 -17,-88 -31,1 -50,-215 -157,-21 -240,135 -274,149 -18,-33 -1,-153 106,-210 59,-30 190,-74 179,-151 -37,-63 -139,-68 -207,-110 -65,-41 -81,-69 -120,-114 -40,-46 -25,-35 -21,-39 9,-9 -12,-18 40,21 122,93 319,142 334,3 6,-56 -7,-87 -35,-115 -56,-55 -175,-98 -257,-98 -18,0 -52,7 -54,0 -1,-1 -3,0 -5,-1 31,-64 133,-73 212,-50 68,20 157,86 212,19 43,-55 46,-170 27,-244 -35,-137 -94,-141 -111,-177 34,-20 137,68 150,87 39,56 45,123 49,204 33,-67 48,-261 37,-344 -10,-84 -75,-237 -137,-256l-8 90c-24,3 -70,-37 -100,-46l-4 104 -101 -42 3 104 -104 -37 11 102c-35,0 -70,-20 -109,-26l21 105 -111 -23 28 104 -111 -12 34 101 -110 -3 42 99 -111 2c11,23 44,74 49,99l-108 9c11,28 44,65 59,95l-108 20c11,32 34,39 64,90l-109 28c18,22 59,59 72,83l-99 38c16,28 64,54 77,80l-96 43c20,27 64,44 82,72 -17,19 -70,42 -94,52 15,17 68,44 92,64l-90 63 99 53c-19,21 -63,53 -86,70l100 47c-12,26 -47,41 -77,75l107 40c-21,29 -48,52 -71,78 29,13 80,15 105,34 -15,32 -43,51 -65,83l113 20c-11,21 -18,32 -31,49 -12,15 -21,24 -28,41l112 11c-4,27 -36,64 -50,94l111 2c0,30 -31,60 -40,98l113 -6 -38 98 113 -13 -30 100 112 -22 -23 101 107 -31 -13 102 103 -36 -5 100 99 -46 0 104c25,-9 69,-38 98,-52l7 101c35,-15 51,-36 69,-46l24 -4 16 98c58,8 138,-69 161,-106 39,-65 35,-157 25,-236 -16,-119 -88,-333 -45,-424 12,-24 17,-28 35,-30z"/>
   <path class="fil3" d="M2996 3497c-29,-22 -98,-122 -122,-161 -37,-59 -71,-116 -99,-187 -138,-345 -44,-611 71,-940 25,-72 48,-138 73,-211 10,-28 59,-192 77,-201 20,9 19,22 26,44 128,419 363,876 196,1316 -27,68 -60,132 -97,188 -21,32 -97,141 -125,152zm-25 178l45 0c17,-30 49,-61 75,-94 26,-34 47,-64 72,-103 44,-69 82,-146 112,-230 136,-377 25,-780 -102,-1144l-181 -511c-218,626 -604,1346 -100,1983l79 99z"/>
   <path class="fil4" d="M2282 2020c8,20 0,4 13,24 75,112 89,295 13,378 -92,98 -276,-121 -395,2 84,1 158,19 222,52 58,29 112,67 112,155 0,91 -57,129 -148,119 -86,-9 -129,-40 -190,-74 90,157 358,130 309,252 -48,121 -266,71 -286,289l17 -14c32,-31 46,-52 99,-83 51,-29 95,-45 160,-25 4,43 2,83 15,127 12,39 30,59 39,100 -80,56 -191,128 -218,246 44,-24 173,-154 242,-137 40,20 -1,226 27,375 19,105 79,212 164,238 -20,-91 -94,-205 -74,-361 32,-238 108,-87 234,-65 -30,-16 -110,-101 -136,-129 -144,-155 -208,-380 -205,-606 2,-189 50,-293 87,-457 36,-163 40,-347 -101,-406z"/>
   <path class="fil4" d="M3363 3608c135,-31 193,-151 225,48 28,180 -70,342 -71,382 63,-42 99,-55 137,-147 80,-195 2,-436 52,-466 58,-20 206,111 245,136 -18,-55 -51,-116 -84,-144 -34,-28 -94,-80 -135,-97 7,-51 35,-77 45,-135 15,-80 -18,-112 67,-108 97,5 173,90 218,136 -8,-203 -207,-169 -280,-281 -55,-83 84,-123 129,-137 65,-19 149,-77 166,-121 -30,12 -53,32 -87,45 -106,41 -251,48 -244,-107 6,-136 193,-191 336,-197 -146,-117 -301,99 -397,0 -43,-44 -55,-137 -46,-215 10,-86 39,-135 76,-190 -223,87 -87,456 -50,606 82,333 23,689 -232,925 -18,17 -56,50 -70,67z"/>
   <path class="fil1" d="M3099 1823l33 -25c27,32 30,100 51,135 37,-37 63,-90 101,-128 92,269 171,705 154,1014 -14,245 -81,470 -216,659 -37,53 -93,124 -133,161 117,-73 245,-205 317,-345 240,-462 109,-1058 -36,-1536 -7,-22 -30,-106 -44,-125 -25,26 -70,103 -92,135l-76 -166c-18,16 -45,76 -59,103 -25,47 -34,66 0,118z"/>
   <path class="fil1" d="M2765 1768c-25,-18 -74,-99 -99,-127 -29,43 -122,423 -141,506 -42,178 -75,383 -78,575 -2,197 33,388 110,543 33,66 89,149 131,191 47,47 110,117 178,153 -9,-20 -45,-54 -63,-79 -325,-446 -301,-981 -169,-1500 17,-66 41,-166 67,-225 35,34 70,80 116,110 35,-128 43,-99 68,-93 22,-89 75,-72 -54,-217l-66 163z"/>
   <path class="fil3" d="M3003 3362c-54,-22 -138,-181 -164,-264 -38,-119 -53,-245 -34,-379 20,-140 120,-585 191,-656 37,21 121,256 132,294 114,378 109,705 -125,1005zm-148 -1112c-101,294 -194,570 -62,888 32,76 159,305 210,328 80,-107 145,-179 201,-336 103,-293 28,-602 -70,-890 -18,-53 -121,-373 -138,-392l-141 402z"/>
   <path class="fil3" d="M2998 3168c-40,-17 -78,-129 -93,-181 -23,-76 -32,-158 -26,-246 6,-91 69,-387 117,-434 50,32 113,354 116,427 8,168 -29,340 -114,434zm1 158c206,-234 206,-615 122,-911 -19,-68 -91,-274 -125,-307 -66,127 -150,446 -168,620 -14,132 -7,235 29,352 23,77 94,215 142,246z"/>
   <path class="fil3" d="M3359 2877c0,199 -48,385 -141,552 -10,17 -27,42 -33,61 35,-56 48,-61 95,-147 29,-53 55,-114 75,-178 44,-137 64,-286 64,-443 0,-161 -20,-314 -46,-462 -14,-78 -71,-355 -99,-405 -27,26 -73,110 -103,122 -13,-41 -30,-107 -47,-140 -28,18 -11,33 15,107 105,294 220,611 220,933z"/>
   <path class="fil3" d="M2882 1848c-36,-18 -37,82 -61,84 -40,5 -85,-72 -110,-82 -27,39 -86,309 -100,378 -177,876 202,1263 206,1285 -120,-206 -193,-361 -194,-675 0,-246 88,-541 168,-766l91 -224z"/>
   <path class="fil3" d="M2996 3128c167,-183 64,-702 0,-770 -36,66 -86,296 -93,385 -10,112 30,344 93,385z"/>
   <path class="fil5" d="M2700 4549l633 -1 70 220 -779 2 76 -221zm127 -132l383 0 58 114 -509 1c8,-23 47,-103 68,-115zm46 -360l260 -1 1 342 -261 0 0 -341zm-116 -129l38 -2 440 1 33 0 -60 114 -83 0 -226 0 -78 0 -64 -113zm-134 -237l760 -2c-1,24 -60,201 -71,221l-618 0 -71 -219zm393 -16l-45 0 -64 -8c-24,14 -179,7 -203,5l-92 4 -4 5 0 11 65 206c15,41 23,20 68,30 19,35 47,95 69,124l46 6 2 343 -49 5 -68 125c-64,11 -41,-24 -87,108 -12,32 -47,115 -45,145l811 1 -76 -250 -57 -1c-24,-40 -46,-89 -71,-130l-63 -2c-9,-47 -7,-292 -1,-346l63 -2c93,-148 30,-107 111,-134 23,-68 46,-147 72,-212l4 -24c-3,-13 6,-6 -9,-8l-60 -9c-21,10 -208,8 -215,7 -29,-6 -12,8 -23,-14 -13,22 -48,17 -79,15z"/>
   <path class="fil6" d="M1476 4264l103 109 -125 195 203 -111 102 109 -269 252 -64 -68 205 -192 -254 139 -57 -61 156 -245 -205 192 -64 -68 269 -251zm479 799l-112 -64 -46 44 -101 -58 302 -252 108 62 -61 388 -104 -59 14 -61zm18 -82l31 -135 -101 96 70 39zm359 -77l333 92 -24 88 -112 -31 -73 267 -110 -30 73 -267 -112 -31 25 -88zm707 425l-129 -5 -20 60 -116 -5 152 -362 125 5 123 373 -119 -5 -16 -61zm-21 -81l-35 -134 -45 131 80 3zm420 101l-97 -355 182 -50c34,-9 61,-13 81,-12 19,0 36,7 52,20 15,13 26,31 32,53 5,20 6,38 1,55 -4,16 -12,31 -25,44 -7,8 -19,16 -34,25 14,0 25,2 32,5 5,2 12,6 22,14 11,7 18,13 22,18l81 88 -124 34 -88 -93c-11,-12 -20,-19 -27,-21 -10,-4 -20,-4 -30,-1l-9 2 39 144 -110 30zm52 -241l47 -12c5,-2 14,-6 28,-13 6,-4 11,-9 14,-16 3,-7 4,-15 1,-23 -3,-11 -9,-19 -18,-23 -9,-4 -23,-4 -43,2l-48 13 19 72zm703 -131l-111 65 15 62 -100 59 -68 -387 107 -64 307 247 -103 61 -47 -43zm-61 -57l-102 -93 33 134 69 -41zm137 -373l99 -113 206 104 -131 -190 98 -113 277 242 -61 70 -211 -184 164 238 -55 64 -259 -131 212 185 -62 70 -277 -242zm-3337 -2380l53 -121 225 99c23,10 42,23 59,38 17,16 29,35 37,57 8,22 12,43 10,62 -1,28 -10,58 -24,91 -8,19 -19,39 -31,60 -13,22 -26,38 -40,50 -15,12 -31,21 -51,27 -20,7 -38,9 -55,7 -27,-3 -50,-8 -69,-17l-226 -98 53 -121 231 101c21,9 40,10 56,3 17,-7 30,-20 39,-41 10,-21 11,-40 5,-57 -7,-17 -20,-30 -41,-39l-231 -101zm169 -311l76 -97 279 15 -180 -141 78 -98 324 256 -77 98 -277 -15 178 140 -76 98 -325 -256zm420 -464l105 -82 255 325 -104 82 -256 -325zm233 -188l123 -62 220 223 -48 -308 119 -60 43 441 -128 64 -329 -298zm576 -259l345 -79 20 86 -216 49 15 64 200 -46 19 83 -200 46 18 79 222 -51 21 91 -351 81 -93 -403zm546 314l13 -413 220 7c41,1 72,5 94,13 21,7 38,20 51,39 12,19 18,41 17,68 0,23 -6,42 -17,59 -10,16 -25,29 -43,39 -11,6 -27,11 -47,15 16,5 27,11 34,16 5,4 12,11 21,22 9,12 14,21 17,27l61 121 -150 -5 -66 -128c-9,-16 -16,-27 -23,-32 -9,-7 -20,-10 -32,-11l-12 0 -5 167 -133 -4zm141 -241l55 2c6,0 18,-2 36,-5 8,-1 16,-5 21,-12 6,-7 9,-15 10,-24 0,-13 -4,-24 -13,-31 -8,-8 -24,-12 -49,-13l-58 -1 -2 84zm365 137l123 28c-3,20 -2,36 3,48 9,20 25,33 50,40 18,5 33,5 45,0 12,-6 20,-14 23,-24 3,-11 1,-21 -6,-32 -7,-11 -26,-25 -58,-42 -52,-28 -87,-56 -105,-83 -18,-26 -23,-55 -14,-86 6,-21 18,-38 35,-53 18,-14 40,-23 68,-27 27,-3 63,2 105,14 53,15 90,36 112,63 22,27 30,62 23,105l-121 -28c2,-19 -1,-34 -9,-45 -8,-11 -21,-20 -38,-25 -15,-4 -27,-4 -36,0 -10,4 -15,10 -18,19 -2,6 0,12 4,19 4,7 17,16 38,27 52,28 89,51 109,70 21,18 34,38 40,59 6,20 5,42 -1,63 -7,26 -21,47 -42,64 -21,18 -46,28 -75,32 -30,3 -64,-1 -104,-12 -70,-21 -114,-48 -134,-81 -19,-34 -25,-72 -17,-113zm612 -78l118 61 -189 367 -118 -61 189 -367zm266 144l317 247 -63 81 -106 -83 -192 245 -104 -81 191 -245 -106 -83 63 -81zm311 774l-94 -117 -67 26 -84 -106 424 -132 90 113 -223 383 -86 -108 40 -59zm52 -78l87 -129 -146 56 59 73zm134 235l59 111c-17,11 -28,22 -34,34 -9,19 -8,40 2,63 8,17 18,29 30,35 12,5 23,6 34,1 9,-5 16,-13 20,-25 3,-13 1,-36 -7,-72 -13,-57 -15,-102 -7,-133 9,-31 28,-54 57,-67 19,-9 40,-12 63,-8 22,3 44,14 64,33 21,19 40,48 59,89 23,49 32,91 26,126 -6,34 -27,62 -64,85l-59 -109c16,-11 25,-23 29,-36 3,-14 1,-29 -7,-46 -7,-14 -14,-23 -23,-27 -9,-5 -18,-5 -26,-1 -6,3 -10,8 -12,16 -3,8 -1,23 5,46 13,58 19,100 18,128 0,28 -6,51 -18,69 -12,18 -28,32 -49,41 -24,11 -49,15 -76,10 -26,-4 -51,-16 -73,-36 -21,-20 -41,-49 -58,-86 -31,-66 -40,-118 -27,-154 13,-37 37,-66 74,-87z"/>
  </g>
 </g>
</svg>
